<svg xmlns="http://www.w3.org/2000/svg" enable-background="new 0 0 24 24" viewBox="0 0 24 24"><path d="M12,15c-1.654,0-3-1.346-3-3s1.346-3,3-3s3,1.346,3,3S13.654,15,12,15z M12,10c-1.103,0-2,0.897-2,2s0.897,2,2,2s2-0.897,2-2S13.103,10,12,10z"/><path d="M14.447,11.986c-0.274,0-0.498-0.222-0.5-0.497c-0.002-0.276,0.22-0.501,0.497-0.503c2.551-0.018,6.884-0.562,7.653-1.947c0.072-0.128,0.289-0.52-0.176-1.277c-0.37-0.603-0.847-0.925-1.459-0.986c-1.307-0.125-3.008,0.921-4.372,2.008c-1.248,1.278-1.987,1.824-2.027,1.853c-0.208,0.152-0.497,0.121-0.668-0.072c-0.171-0.192-0.167-0.483,0.008-0.672c0.073-0.079,0.88-0.94,2.019-1.855c0.36-0.37,0.764-0.803,1.205-1.304c1.04-1.181,1.504-2.464,1.273-3.521c-0.183-0.839-0.812-1.519-1.819-1.966c-0.728-0.325-1.506-0.241-2.187,0.236c-0.914,0.638-1.474,1.854-1.394,3.027c0.167,2.458,0.346,4.986,0.346,4.986l-0.997,0.071c0,0-0.18-2.53-0.347-4.99c-0.104-1.533,0.61-3.069,1.819-3.914c0.966-0.675,2.12-0.794,3.166-0.33c1.654,0.736,2.212,1.856,2.39,2.667c0.222,1.018-0.022,2.164-0.675,3.268c0.797-0.354,1.607-0.561,2.359-0.486c0.932,0.093,1.676,0.583,2.213,1.458c0.636,1.038,0.459,1.816,0.198,2.286c-1.302,2.345-7.786,2.457-8.521,2.461C14.449,11.986,14.448,11.986,14.447,11.986z"/><path d="M8.759,24.008c-0.697,0-1.343-0.208-1.867-0.613c-1.073-0.832-1.733-1.908-1.857-3.033c-0.086-0.774,0.074-1.54,0.476-2.285c-0.272,0.071-0.547,0.119-0.825,0.138c-1.119,0.077-2.121-0.324-2.975-1.186c-0.659-0.875-0.739-2.086-0.25-3.14c0.253-0.545,0.627-1.003,1.095-1.358c-0.514-0.14-0.954-0.366-1.271-0.707c-0.998-1.073-1.127-2.062-1.061-2.704c0.1-0.952,0.687-1.851,1.653-2.531c1.297-0.914,3-0.636,4.585,0.042C6.396,6.551,6.331,6.47,6.27,6.391c-0.702-0.913-1.005-2.14-0.812-3.282c0.155-0.917,0.605-1.661,1.268-2.096c0.6-0.394,1.214-0.509,1.826-0.346C9.454,0.909,10.278,1.758,11,3.191c1.059,2.1,1.479,6.088,1.497,6.257c0.028,0.275-0.171,0.521-0.446,0.549c-0.284,0.021-0.521-0.172-0.549-0.446c-0.004-0.04-0.419-3.975-1.395-5.91C9.527,2.49,8.9,1.796,8.293,1.633C7.962,1.544,7.63,1.617,7.274,1.85C6.847,2.13,6.552,2.637,6.444,3.276c-0.147,0.873,0.084,1.81,0.619,2.506c0.754,0.981,2.206,2.349,3.085,3.149c0.377,0.309,0.647,0.559,0.771,0.691c0.182,0.194,0.179,0.497-0.005,0.688c-0.184,0.192-0.487,0.205-0.688,0.031c-0.038-0.033-0.358-0.312-0.814-0.727C7.771,8.299,4.298,6.11,2.455,7.409C1.728,7.921,1.289,8.566,1.22,9.227c-0.066,0.632,0.203,1.278,0.798,1.919c1.046,1.125,5.051,0.389,7.329-0.34c0.241-0.077,0.505,0.04,0.608,0.271c0.104,0.232,0.017,0.506-0.202,0.635C9.7,11.744,8.393,12.494,5.03,12.694c-1.248,0.074-2.218,0.664-2.661,1.618c-0.336,0.725-0.298,1.536,0.099,2.067c0.604,0.604,1.33,0.899,2.152,0.839c0.73-0.049,1.464-0.359,2.142-0.78c1.615-1.792,3.121-2.913,3.192-2.965c0.2-0.147,0.478-0.126,0.653,0.05c0.175,0.177,0.193,0.455,0.043,0.653c-0.081,0.107-1.42,1.858-3.227,3.022c-0.171,0.192-0.344,0.392-0.515,0.598c-0.674,0.813-0.97,1.64-0.879,2.457c0.094,0.853,0.618,1.688,1.476,2.352c0.563,0.436,1.366,0.522,2.204,0.239c0.898-0.305,1.625-0.98,1.809-1.679c0.227-0.864,0.131-2.823-0.015-4.464c-0.155-0.825-0.236-1.596-0.238-2.198c-0.001-0.263,0.203-0.482,0.465-0.501c0.261-0.012,0.495,0.171,0.53,0.432c0.012,0.087,0.132,0.989,0.236,2.143c0.41,2.096,1.321,4.381,2.369,4.807c0.244,0.099,0.639,0.163,1.231-0.442c0.421-0.428,0.617-0.933,0.598-1.542c-0.05-1.627-1.564-3.496-2.512-4.51l-0.767-0.767c-0.192-0.191-0.196-0.501-0.009-0.698s0.497-0.208,0.697-0.027c0.043,0.039,0.38,0.345,0.831,0.83l2.004,2.004c1.083,1.083,2.221,1.578,3.287,1.429c0.946-0.132,1.821-0.765,2.339-1.694c0.415-0.743,0.428-1.667,0.035-2.41c-0.39-0.737-1.091-1.187-1.976-1.266c-2.261-0.202-6.03,0.203-6.068,0.208c-0.277,0.029-0.521-0.168-0.551-0.443c-0.03-0.275,0.168-0.521,0.443-0.551c0.159-0.017,3.909-0.42,6.265-0.209c1.216,0.109,2.226,0.763,2.771,1.794c0.558,1.056,0.541,2.313-0.046,3.365c-0.67,1.201-1.82,2.022-3.075,2.197c-0.739,0.104-1.792,0.018-2.986-0.767c0.184,0.492,0.302,0.994,0.317,1.486c0.027,0.885-0.271,1.65-0.884,2.274c-0.934,0.951-1.777,0.889-2.321,0.667c-0.742-0.302-1.362-1.083-1.853-2.067c-0.022,0.46-0.069,0.867-0.151,1.176c-0.27,1.026-1.233,1.957-2.455,2.372C9.598,23.936,9.17,24.008,8.759,24.008z"/></svg>