<?xml version="1.0" encoding="UTF-8"?><svg id="Layer_2" xmlns="http://www.w3.org/2000/svg" xmlns:xlink="http://www.w3.org/1999/xlink" viewBox="0 0 638.83 410.02"><defs><linearGradient id="linear-gradient" x1="300.28" y1="143.75" x2="300.28" y2="402.85" gradientTransform="matrix(1, 0, 0, 1, 0, 0)" gradientUnits="userSpaceOnUse"><stop offset="0" stop-color="#2e2e1a"/><stop offset="1" stop-color="#1a170c"/></linearGradient><linearGradient id="linear-gradient-2" x1="456.37" y1="96.83" x2="456.37" y2="145.87" gradientTransform="matrix(1, 0, 0, 1, 0, 0)" gradientUnits="userSpaceOnUse"><stop offset="0" stop-color="#c8c6c5"/><stop offset=".19" stop-color="#c4c2c1"/><stop offset=".38" stop-color="#b8b6b6"/><stop offset=".57" stop-color="#a5a2a5"/><stop offset=".75" stop-color="#8a878c"/><stop offset=".94" stop-color="#68646c"/><stop offset="1" stop-color="#5b5660"/></linearGradient></defs><path class="cls-13" d="M597.15,401.11v-90.34c0-1.12-45.07-156.07-45.07-156.07h-10.96l-2.01,2.46-74.68,11.63-3.58-3.13-8.27,5.81-5.14-2.01-120.52-22.58-144.67-3.13-64.63,12.07-48.75,.67-65.46-.22v246.58l593.74-1.74Z"/><path class="cls-8" d="M551.33,166.14c-1.19,.89-35.48,17.89-57.24,22.36s-181.86-2.96-181.86-2.96l22.66-30.73,216.45,11.33Z"/><polygon class="cls-7" points=".61 156.18 3.59 197.92 106.21 198.94 154.21 193.87 180.15 147.4 .61 156.18"/><path class="cls-10" d="M572.2,160.86l-29.29-62.84-110.44-11.21-169.27-18.11s-62.85,29.55-100.64,35.81S3.41,111.66,3.41,111.66l1.29,47.18c.46,4.79,208.77-6.94,241.27-9.84,34.04-3.04,210.41,24.38,210.41,24.38l115.83-12.52Z"/><path class="cls-4" d="M438.63,87.81s-75.65,18.23-99.35,59.59L143.18,406.46H5.57l.3-95.43L230.98,113.15s17.66-19.68,39.8-27.95l37.03-11.73,130.82,14.34Z"/><path class="cls-14" d="M244.83,7.48l18.35,61.69s-77.81,51.88-208.4,43.16L0,114.79,2.68,2.99S179.54,1.45,244.83,7.48Z"/><path class="cls-9" d="M236.35,11.26S201.58,7.01,5.87,6.12V26.24s193.81,4.02,230.48-14.98Z"/><line class="cls-3" x1="98.39" y1="32.73" x2="106.21" y2="105.62"/><line class="cls-3" x1="152.23" y1="29.54" x2="169.49" y2="101.22"/><line class="cls-3" x1="190.06" y1="29.54" x2="205.86" y2="87.81"/><line class="cls-3" x1="212.94" y1="26.6" x2="228" y2="81.4"/><line class="cls-3" x1="232.47" y1="22.66" x2="245.44" y2="70.14"/><line class="cls-3" x1="50.76" y1="30.49" x2="53.44" y2="111.66"/><polygon class="cls-6" points="38.98 113.07 38.81 26.58 47.16 26.58 48.39 114.72 38.99 114.72 38.98 113.07"/><polygon class="cls-12" points="542.98 182.24 561.47 403.76 576.37 403.76 546.56 173.38 542.98 182.24"/><polygon class="cls-12" points="538.81 212.95 535.53 406.46 527.18 253.2 538.81 212.95"/><path class="cls-12" d="M516.75,310.89l-7.9,41.44-4.77-17.44-20.42,75.13s28.02-.3,28.32-1.34,4.77-97.79,4.77-97.79Z"/><path class="cls-5" d="M440.72,95.48s-28.29,6.57-50.09,33.84v4.92l50.83,12.67,66.93,1.94,13.71-45.17-81.39-8.2Z"/><path class="cls-1" d="M441.99,96.83s-26,6.04-46.03,31.1v4.52l46.71,11.64,61.51,1.78,12.6-41.51-74.8-7.53Z"/><ellipse class="cls-11" cx="531.65" cy="137.17" rx="5.63" ry="10.24" transform="translate(2.64 284.2) rotate(-30)"/><polyline class="cls-2" points="6.93 143.75 33.54 148.85 148.7 143.75 201.91 134.69"/><line class="cls-2" x1="147.24" y1="121.39" x2="151.04" y2="148.22"/><path class="cls-2" d="M560.91,150.45l-15.43-7.6-10.29,5.14s-83.4,2.46-83.74,2.46-93.35-22.02-93.35-22.02"/><line class="cls-2" x1="42.56" y1="127.83" x2="35.55" y2="153.77"/></svg>