<?xml version="1.0" encoding="utf-8"?>
<!-- Generator: Adobe Illustrator 25.2.1, SVG Export Plug-In . SVG Version: 6.00 Build 0)  -->
<svg version="1.1" id="Layer_1" xmlns="http://www.w3.org/2000/svg" xmlns:xlink="http://www.w3.org/1999/xlink" x="0px" y="0px"
	 viewBox="0 0 128 128" style="enable-background:new 0 0 128 128;" xml:space="preserve">
<style type="text/css">
	.st0{fill:#D3D5D6;}
	.st1{fill:#828487;}
</style>
<circle id="base" class="st0 surface" cx="64" cy="64" r="60"/>
<g id="accent" class="ocean">
	<path class="st1" d="M55,11.2c4-0.4,7.4-1.2,7.4-2.6c0-1.4-3.7-2.7-8-2.3C50,6.7,47,8.7,47.3,10S51,11.5,55,11.2z"/>
	<path class="st1" d="M120.1,63.5c-0.2-1.3-0.7-2.7-0.7-4c0-0.4,0-0.8,0.1-1.2c1.2-7.2,1.8-14-6.3-18.1c-0.9-0.5-1.9-0.8-2.5-1.6
		c-1.2-1.3-1.1-3.4-1.5-5.2c-1-5.5-7.2-9.5-12.7-8c-1.8,0.5-3.6,1.5-5.4,0.8c-1.4-0.5-2.2-2-2.9-3.2c-2.2-3.6-5.6-6.8-9.8-7.3
		c-4.2-0.6-8.9,2.3-9.2,6.5c-0.1,1.8,0.2,4,1.6,5.2c5.9,5,9.5,1.3,12.2,3.9c3.2,3-3.4,3.8-2.3,11.5c0.5,3.8,4.3,7.4,8.2,7.1
		c1.7-0.2,4.3-0.2,5.3,1.2c0.8,1.1,0.6,2.2,0.6,4c0,4.5,0.5,8.1,4.9,9.1c0.6,0.1,1.2,0.2,1.7,0c1.2-0.5,1.2-2.1,1.1-3.4
		c-0.3-5.6-4.3-6.8-5-9.8c-0.9-3.9,4.5-9.3,8.9-7.8c3.5,1.2,0.7,5.2,3.2,9.9c1.7,3.1,5,4.5,6.2,7.1c1.2,2.5,0.1,4.3,0.7,5.9
		c0.9,2.5,2.4,2.6,3.2,1.7C120.6,66.7,120.3,64.7,120.1,63.5z"/>
	<path class="st1" d="M26.2,102.6c-1-1-1.9-0.7-2-0.6c-1.1,1.7,1.5,6.4,6.3,7.3c1,0.2,2.2-0.7,1-1.8
		C30.3,106.4,27.3,103.6,26.2,102.6z"/>
	<path class="st1" d="M50.8,116.9c-1.5-0.6-5.3-2.2-6.6-2.7c-1.3-0.5-2,0-2.1,0.2c-0.5,2,3.7,5.5,8.5,4.6
		C51.5,118.8,52.3,117.5,50.8,116.9z"/>
	<path class="st1" d="M49.2,112.8c0.3-0.7-0.3-1.4-0.9-1.9c-1.5-1.2-11.2-6.8-11.9-4c-0.5,2,3.2,4.4,4.5,5.1c2,1.1,4.3,1.7,6.6,1.6
		C48.2,113.6,49,113.4,49.2,112.8z"/>
	<path class="st1" d="M104.3,96.5c-1.3,1.6-4.8,5.6-6,6.9c-1.2,1.3-0.8,2.4-0.6,2.6c2.3,1.3,8.4-2.3,9.1-8.4
		C107,96.3,105.6,94.9,104.3,96.5z"/>
	<path class="st1" d="M111.7,85.2c-0.6,1.5-2.3,5.5-2.9,6.8c-0.6,1.3,0,2.1,0.2,2.1c2.1,0.4,5.9-3.9,4.8-8.8
		C113.7,84.4,112.3,83.7,111.7,85.2z"/>
	<path class="st1" d="M77.6,10.9c1.5,0.6,5.5,2.2,6.8,2.7c1.3,0.5,2.1-0.1,2.1-0.3c0.5-2.1-3.8-5.8-8.7-4.6
		C76.8,8.9,76,10.3,77.6,10.9z"/>
	<path class="st1" d="M56.5,15.5c-9.5-1.7-12.9,4-15.8,5.2c-2.3,1-3.9-0.7-7.5,1.5c-4.9,3-3.1,5.2-3.5,7.7c-0.5,2.5-3.2,3.6-5.2,3.8
		c-2.4,0.2-2.6-1.2-1.4-2.9c0.6-1,1.3-1.5,1.6-2.7c0.4-1.3,0.2-2.7,0.9-3.9c1.1-1.9,3.8-2.1,5.4-3.6c1.2-1.1,1.8-2.7,3-3.7
		c1.3-1,2.9-1.3,4.5-1.6c3.2-0.6,5.9-3.1,4.5-3.2c-1.5-0.1-3.9-0.5-5.9,1c-2.3,1.7-5.3,2.2-7.7,3.5c-2.7,1.5-4.1,4.9-4.9,5.8
		s-3.5,1-5.3,2.9c-3.8,3.9-10.1,18-10.1,23.3c0,4.9,2.2,9.8,7.1,11.1c0.7,0.2,1.5,0.4,2,1c1.1,1.4-1.7,5.5-2.1,7.2
		c-1.1,4.3,0.1,7.6,2,10c4.1,5.1,8.2,4.4,12.3,1.9c1-0.6,1.9-1.5,3-1.9c2.3-0.9,2.4,0.6,2.6,2.4c1.1,8.1,4.4,10.1,6.8,11
		c4.9,1.9,10.9,0.1,14.1-4.1c3.2-4.2,3.5-10.4,0.7-14.8c-4.4-6.7-13-7.1-14.8-10.8c-2-4.2,3.5-4.8,5.9-8.5c2.1-3.2,2.6-7.7,0.5-11.1
		c-1-1.7-2.7-3.3-2.2-5.2c0.5-2.1,6.5-5.4,11-9.3C60.8,24.9,68.3,17.6,56.5,15.5z"/>
</g>
</svg>
