<?xml version="1.0" encoding="utf-8"?>
<!-- Generator: Adobe Illustrator 25.2.1, SVG Export Plug-In . SVG Version: 6.00 Build 0)  -->
<svg version="1.1" id="Planet" xmlns="http://www.w3.org/2000/svg" xmlns:xlink="http://www.w3.org/1999/xlink" x="0px" y="0px"
	 viewBox="0 0 512 512" style="enable-background:new 0 0 512 512;" xml:space="preserve">
<style type="text/css">
	.st0{fill:#21B24B;}
	.st1{fill:#1468B3;}
</style>
<path id="land" class="st0" d="M18.8,159.8c-25.7,63.4-25.2,133,1.5,195.9s76.2,111.8,139.6,137.5c63.4,25.7,133,25.2,195.9-1.5
	s111.8-76.2,137.5-139.6s25.2-133-1.5-195.9S415.6,44.5,352.2,18.8s-133-25.2-195.9,1.5S44.5,96.4,18.8,159.8z M129.4,366
	c0,0.2-0.1,0.5-0.1,0.6C129.3,366.5,129.4,366.3,129.4,366z M203.3,450.8c0,0,0.1,0,0.1,0C203.3,450.8,203.3,450.8,203.3,450.8z
	 M456,320.9c-0.2,0.1-0.4,0.2-0.6,0.3C455.7,321,455.8,320.9,456,320.9z M470.8,165.1c17,40.3,21.9,82.8,16.1,123.2l-36.5,10.4
	c-8.7,2.5-15.7,9.1-18.7,17.6c0,0-13.2,37.2-13.4,37.6l-30.6,44.7c-5.4,7.9-6.4,17.9-2.7,26.7l8.2,19.4
	c-14.1,10.3-29.6,19.1-46.3,26.2c-1.8,0.8-3.6,1.5-5.4,2.2l-83.2-16.7c-3.7-0.7-7.1-2.2-10.2-4.3l-24.2-16.4
	c-14.3-9.7-32.3-11.5-48.3-4.7L128.2,451c-22.3-14.6-42.2-33-58.7-54.9l10.8-7.4c0.6-0.4,1.3-0.6,2.1-0.6l40.6,3.6
	c2.5,0.2,8.6-0.6,8.6-0.6c7.8-1.6,14.4-6.7,17.9-13.8c3.4-6.8,3.6-14.7,0.7-21.6c-0.1-0.3-3.9-10.7-16-14.6l-61.8-19.6
	c-0.5-0.2-0.9-0.4-1.3-0.8l-20.5-20.7c-2.9-3-6.5-5.2-10.5-6.4L25,288.7c-2.6-18.4-3-36.9-1.2-55c0.7,0,54.7-8.9,54.7-8.9
	c0.1,0,0.3,0,0.3,0.2l24.7,45c2.4,4.4,6.3,8,10.9,10l42.7,18.8c0.1,0,0.1,0.1,0.1,0.1l17.7,22.7c5.8,7.4,15.4,10.5,24.4,8
	c9-2.5,15.6-10.2,16.7-19.5c0.4-3.6,0-7.2-1.2-10.6l-31.4-87.2c0-0.1,0-0.2,0.1-0.3l5.1-5.5c0.1-0.1,0.3-0.1,0.4-0.1l34.6,21.1
	c0.1,0,0.1,0.1,0.1,0.2l14.4,48l0.2,38.9c0,8.2,4.5,15.8,11.5,19.9l40.2,23.2c5.3,3,11.4,3.9,17.3,2.4l39.5-10.1
	c5.1-1.3,9.6-4.3,12.7-8.5l28.9-38.4c4.5-6,5.8-13.8,3.5-21l-13.1-40.5c0-0.1,0-0.2,0.1-0.3l19.3-18.3l36.9-26.1
	c5.2-3.7,8.7-9.5,9.6-15.9l3.1-24.1c0.6-4.2-0.1-8.3-1.6-12c-2.3-5.4-6.7-10-12.4-12.3l-41.9-17.5c-5.5-2.3-11.5-2.4-17-0.3
	l-49.4,18.6c-0.1,0-0.1,0-0.2,0l-43.4-8c-11.1-2.1-22,4.2-25.9,14.7l-7,19.2c0,0.1-0.1,0.2-0.2,0.2l-13.3,3.2c-0.1,0-0.2,0-0.3-0.1
	c-0.1-0.1-0.1-0.2-0.1-0.3l5.9-33.5c2-11.2-4.7-22.4-15.6-25.9l-15.4-5c-7.2-2.4-15.1-1-21.1,3.5c-6,4.6-9.4,11.8-9.1,19.4l0,0.9
	c0,0.1,0,0.2,0,0.2c-0.1,0.1-0.3,0.2-0.4,0.2c0,0-0.1,0-0.2-0.1l-14.9-12.2c-0.1-0.1-0.1-0.2-0.1-0.3l4.1-16.6
	c1.9-7.5-0.1-15.4-5.4-21.2c-5.2-5.7-13-8.4-20.6-7.2l-9.4,1.5c-0.1,0-0.3,0-0.3-0.1l-3.8-5.6c11.2-7.3,23.2-13.7,36-19.1
	C283.6-8.9,420.7,46.7,470.8,165.1z"/>
<path id="water" class="st1" d="M116.3,41c12.3-8,25.5-15,39.5-20.9c130.2-55.1,280.9,6,336,136.2c18.7,44.3,24,91,17.7,135.4
	l-40.2,11.4c-9.6,2.7-17.2,10-20.5,19.3c0,0-14.5,40.9-14.8,41.3l-33.6,49.2c-5.9,8.7-7,19.6-2.9,29.3l9,21.3
	c-15.5,11.3-32.5,21-50.9,28.7c-2,0.8-4,1.7-6,2.4l-91.4-18.4c-4-0.8-7.8-2.4-11.2-4.7l-26.6-18c-15.7-10.6-35.5-12.6-53-5.2
	l-52.2,22.1c-24.5-16-46.4-36.3-64.5-60.3l27.6-22.7c0.7-0.5,1.5-0.7,2.3-0.6l38.5,4.6c2.8,0.3,9.4-0.7,9.4-0.7
	c8.6-1.8,9.9-1,13.8-8.8c3.7-7.5,0.2-8.6-3-16.3c-0.2-0.4-4.3-11.7-17.6-16.1L53.8,328c-0.5-0.2-1-0.5-1.4-0.9l-22.6-22.7
	c-3.2-3.2-7.2-5.7-11.5-7.1L1.9,292c-2.9-20.2-3.3-40.5-1.3-60.5c0.7,0,80-7.8,80-7.8c0.2,0,0.3,0.1,0.4,0.2l24.1,44.3
	c2.7,4.9,7,8.8,12,11l37.6,14.7c0.1,0,0.1,0.1,0.1,0.1l19.5,24.9c6.3,8.1,13.7,11.1,23.6,8.3c9.9-2.8,12.8-1.5,14-11.7
	c0.5-3.9,0-7.9-1.3-11.6l-34.5-95.8c0-0.1,0-0.3,0.1-0.4l5.6-6c0.1-0.1,0.3-0.1,0.5-0.1l38,23.2c0.1,0,8.5,1.3,8.5,1.4l14.5,50.9
	l-0.7,32.7c0,9,4.9,17.3,12.7,21.8l34.1,24.2c5.8,3.3,12.5,4.3,19,2.6l35.4-9.8c5.6-1.4,10.5-4.7,14-9.3l25.6-29.3
	c5-6.6,11.4-20.3,8.9-28.1l-13.6-39.7c0-0.1,9-10.8,9.1-10.9l21.2-20.1l19.8-13.6c5.8-4.1,11.6-5.8,12.6-12.8l3.5-26.5
	c0.6-4.6-0.1-9.1-1.8-13.1c-2.5-6-7.3-10.9-13.6-13.6l-39.9-13.4c-6-2.5-24.8,0.5-30.9,2.8l-30.4,13.6c-0.1,0-11.9,1.7-12,1.7
	l-23.1-9.1c-12.2-2.3-34.1,4.7-38.4,16.3l-7.7,21.1c0,0.1-0.1,0.2-0.3,0.2l-14.6,3.5c-0.1,0-0.2,0-0.3-0.1c-0.1-0.1-0.1-0.2-0.1-0.3
	l6.4-36.9c2.2-12.3,1.9-20.7-10-24.6l-17.6-7.4c-7.9-2.6-13.1-3.2-19.7,1.8c-6.6,5-10.4,13-10,21.3l0,0.9c0,0.1,0,0.2,0,0.2
	c-0.1,0.1-0.3,0.2-0.4,0.2c0,0-0.1,0-0.2-0.1L164,110c-0.1-0.1-0.2-0.2-0.1-0.4l4.5-18.2c2.1-8.3,0.1-11.1-5.7-17.4
	c-5.8-6.3-8.3-7.8-16.7-6.5L133.2,66c-0.1,0-12.7-18.7-12.8-18.8L116.3,41z"/>
</svg>
